<?xml version="1.0" encoding="utf-8"?>
<!-- Generator: Adobe Illustrator 19.0.0, SVG Export Plug-In . SVG Version: 6.00 Build 0)  -->
<svg version="1.1" id="Layer_1" xmlns="http://www.w3.org/2000/svg" xmlns:xlink="http://www.w3.org/1999/xlink" x="0px" y="0px"
	 viewBox="0 0 1930 386.7" style="enable-background:new 0 0 1930 386.7;" xml:space="preserve">
<style type="text/css">
	.st0{fill:#FFFFFF;}
</style>
<g>
	<path class="st0" d="M139.5,212.7c1-0.7,1.9-1.4,2.7-2.1c1.2-0.9,2.4-1.8,3.4-2.7c1-1,2-2,2.9-3c0.5-0.9,1.1-1.6,1.8-2.2
		c0.7-0.6,1.4-1.3,2.1-2.2c1.7-2.4,3.2-5,4.4-7.6c1.2-2.6,2.4-5.5,3.4-8.6c0.5-1.7,0.9-3.5,1.2-5.2c0.3-1.7,0.6-3.6,0.9-5.5v-4.7
		c0.3-0.9,0.3-1.7,0-2.6c0-4.2-0.4-7.7-1-10.4c-0.2-0.3-0.3-0.7-0.3-1.2c0-0.4-0.1-0.9-0.3-1.4c-0.7-1.7-1.4-3.5-2-5.2
		c-0.6-1.7-1.4-3.3-2.2-4.7c-3-4.7-6.1-8.5-9.5-11.5c-3.4-3-7.4-5.9-12.1-8.9c-3-1.9-6.3-3.4-10.1-4.4c-3.7-1-7.4-2.2-10.8-3.4
		c-0.9-0.3-1.7-0.5-2.6-0.5c-0.9,0-1.7-0.2-2.6-0.5c-4.9-1.4-9.8-2.7-14.8-3.8c-5-1.1-9.8-2.5-14.5-4c-2.1-0.7-4.1-1.3-6.1-1.7
		c-2-0.4-4-1.1-5.9-2c-3.5-1.4-6.5-2.8-9-4.3c-2.5-1.5-4.5-4-5.9-7.7c-0.4-0.9-0.6-2-0.8-3.5c-0.2-1.5-0.1-2.8,0.3-4
		c0.9-4.7,2.4-8.2,4.6-10.6c2.2-2.4,5.3-4.4,9.3-6.1c2.4-1,5.2-1.7,8.4-2.1c3.1-0.3,6.3-0.4,9.5-0.3c3.2,0.2,6.4,0.6,9.4,1.2
		c3,0.6,5.6,1.4,7.7,2.2c2.3,1.2,4.6,2.7,7.1,4.4c1.4,1,2.7,2.5,3.9,4.4c1.2,1.9,2.2,3.7,2.9,5.5c0.9,1.9,1.6,3.8,2.1,5.7
		c0.5,1.9,1.8,3.3,3.9,4.2c1,0.4,2.4,0.5,3.9,0.5c1.6,0,3.1,0,4.7,0h16.5c1.9,0,3.7-0.1,5.2-0.4c1.6-0.3,2.8-0.9,3.7-2
		c0.7-0.9,1.1-2.2,1.2-4c0.1-1.8,0-3.4-0.4-4.8c-0.9-3.5-1.8-6.7-2.7-9.7c-1-3-2.3-5.8-4-8.6c-12.7-20.5-36-30.6-69.7-30
		c-0.4,0.4-1.1,0.4-2.2,0.3c-1.1-0.2-2-0.2-2.5,0c-1.7,0.4-3.4,0.6-5.1,0.7c-1.7,0.1-3.4,0.3-5.1,0.7c-4.5,1-8.8,2.2-12.8,3.4
		c-4,1.2-7.8,2.9-11.2,5c-5.4,3.5-10.1,7.4-14.2,11.6c-4.1,4.3-7.4,9.4-10.1,15.5c-0.7,1.7-1.2,3.5-1.6,5.2
		c-0.4,1.7-0.8,3.6-1.3,5.5c0,1.4-0.1,2.4-0.3,3.1c-0.4,1.9-0.4,4.4-0.3,7.3c0.2,3,0.4,5.2,0.8,6.8c0.5,1.9,1,3.7,1.3,5.4
		c0.3,1.7,0.9,3.3,1.6,4.8c1.9,4.5,4.5,8.5,7.8,12c3.3,3.5,7,6.5,11,9.1c3.1,1.9,6.5,3.6,10.2,5.1c3.7,1.5,7.5,2.9,11.5,4.3
		c1.4,0.4,2.7,0.7,3.8,1c1.1,0.4,2.4,0.7,3.8,1c0.7,0.4,1.3,0.5,1.8,0.5s1.2,0.2,2.1,0.5c2.6,0.9,5.4,1.6,8.2,2.2
		c2.9,0.6,5.7,1.4,8.5,2.2c1.4,0.4,2.7,0.7,3.8,0.9c1.1,0.3,2.3,0.6,3.5,0.9c3.1,1,6.3,2,9.5,3c3.2,1,6.1,2.2,8.8,3.8
		c1.4,0.7,2.4,1.2,2.9,1.6c4.2,2.6,7.1,6.3,8.9,11c0.3,0.9,0.7,2.1,0.9,3.7s0.2,3-0.1,4.2c-1.4,6.1-3.8,10.4-7.3,13.1
		c-3.5,2.6-8.2,4.7-14.1,6.3c-0.9,0.4-1.8,0.6-2.7,0.7c-1,0.1-1.9,0.2-2.7,0.4c-1.2,0-2.1,0.1-2.6,0.3c-1.4,0.4-3.3,0.5-5.7,0.5
		c-2.4,0-4.4-0.2-5.7-0.5h-1.3c-1.4-0.3-2.7-0.5-3.8-0.5c-1.1,0-2.3-0.2-3.5-0.5c-5.6-1.6-10.3-3.6-14.1-6c-1-0.7-2.1-1.5-3.1-2.4
		c-1-0.9-2-1.8-2.9-2.9c-1.2-1.6-2.4-3.2-3.4-5c-1-1.7-1.9-3.7-2.6-5.7c-0.9-2.1-1.5-4.1-1.8-6.1c-0.4-2-1.5-3.4-3.4-4.3
		c-1.2-0.5-2.6-0.8-4.2-0.8s-3,0-4.4,0H16.8c-2.1,0-4,0.1-5.6,0.4c-1.7,0.3-2.9,1.1-3.8,2.5c-0.9,1-1.2,2.6-1,4.6
		c0.2,2,0.4,3.7,0.8,5.1c0.3,1.2,0.6,2.4,0.7,3.4c0.1,1,0.3,2.1,0.7,3.1c1.6,5.7,3.7,10.7,6.5,14.9c4.4,7,9.8,12.6,16.2,16.8
		c6.4,4.3,13.9,7.8,22.5,10.6c1.9,0.7,4,1.2,6.3,1.6c2.3,0.3,4.4,0.8,6.5,1.3c0.9,0.2,1.7,0.3,2.4,0.4c0.7,0.1,1.5,0.1,2.4,0.1
		c1,0.3,2.2,0.5,3.5,0.4c1.3-0.1,2.6,0,3.8,0.4h2.6c0.9,0.2,2.4,0.3,4.4,0.3s3.6-0.1,4.4-0.3c0.3-0.2,0.8-0.2,1.4-0.1
		c0.6,0.1,1.1,0.1,1.4,0.1h2.1c1-0.4,2.1-0.5,3.3-0.4c1.1,0.1,2.3,0,3.5-0.4c2.6-0.5,5.2-0.9,7.8-1.2c2.6-0.3,5.1-0.8,7.6-1.7
		c3.5-1.2,6.8-2.4,10.1-3.7c3.2-1.2,6.3-2.8,9.3-4.7C137.5,214.1,138.5,213.4,139.5,212.7z"/>
	<path class="st0" d="M184.9,61.6c0.3,1.5,0.7,2.5,1.4,3c1,0.9,2.3,1.4,3.8,1.6c1.5,0.2,3.2,0.3,5.1,0.3h14.6c1.9,0,3.7-0.1,5.4-0.3
		c1.7-0.2,3-0.7,4-1.6c1.2-0.9,1.8-2.5,1.8-5c0-2.4,0-4.8,0-7.1c0-2.6,0-5.3,0-8.1c0-2.8-0.6-4.9-1.8-6.3c-0.9-0.9-2.1-1.4-3.7-1.6
		c-1.6-0.2-3.2-0.3-5-0.3h-19.1c-0.4,0-0.8,0-1.3,0.1c-0.5,0.1-1,0.1-1.3,0.1c-0.7,0.4-1.4,0.7-2,1c-0.6,0.4-1.1,0.9-1.4,1.6
		c-0.5,0.9-0.8,1.9-0.9,3c-0.1,1.1-0.1,2.4-0.1,3.8c0,1.4,0,3-0.1,5c-0.1,1.9-0.1,3.8,0,5.6C184.5,58.4,184.6,60.1,184.9,61.6z"/>
	<path class="st0" d="M217.7,88.6c-0.9-0.2-1.8-0.4-2.9-0.8h-2.1c-0.9-0.2-2-0.2-3.3-0.1c-1.3,0.1-2.5,0.1-3.5,0.1h-13.1
		c-0.4,0.2-0.8,0.2-1.4,0.1c-0.6-0.1-1.1,0-1.4,0.1c-1.9,0.4-3.4,1.1-4.4,2.4c-0.7,1-1,2.4-1,4.2c0,1.7,0,3.5,0,5.2v110.2
		c0,2.1,0,4,0.1,5.9c0.1,1.8,0.7,3.4,1.7,4.6c0.7,0.9,1.8,1.4,3.3,1.6c1.5,0.2,3,0.3,4.6,0.3h14.6c1.4,0,2.7,0,3.9,0.1
		c1.2,0.1,2.4,0,3.4-0.4c3-0.9,4.5-2.5,4.7-5c0.2-2.4,0.3-5.4,0.3-8.9V98.8c0-1.7,0-3.4-0.1-5c-0.1-1.6-0.5-2.8-1.2-3.7
		C219.3,89.3,218.6,88.8,217.7,88.6z"/>
	<path class="st0" d="M299.1,115.1c0.6-1.1,1.6-1.9,3-2.2c0.5-0.3,1-0.5,1.6-0.4c0.5,0.1,1.1,0,1.8-0.1c0.5-0.2,1.2-0.2,2-0.1
		c0.8,0.1,1.5,0.1,2.2,0.1c3.5,0,6.6-0.1,9.4-0.3c2.8-0.2,4.6-1.7,5.5-4.4c0.3-0.9,0.5-1.9,0.4-3.1c-0.1-1.2-0.1-2.4-0.1-3.7
		c0-2.8-0.1-5.3-0.4-7.6c-0.3-2.3-1.4-3.8-3.3-4.7c-0.9-0.3-1.8-0.5-2.9-0.5s-2.1,0-3.1,0c-3,0-6.1,0-9.3-0.1
		c-3.2-0.1-5.4-0.9-6.7-2.5c-0.7-0.9-1.1-1.9-1.3-3c-0.2-1.1-0.3-2.4-0.3-3.8v-2.9c-0.2-0.9-0.2-1.9-0.1-3c0.1-1.1,0.1-2.1,0.1-3
		V58.1c0-1.2,0-2.4,0-3.7c0-1.2-0.2-2.3-0.5-3.1c-0.9-1.9-2.3-3-4.3-3.3c-2-0.3-4.3-0.4-6.9-0.4h-17.5c-0.4,0.2-0.8,0.2-1.4,0.1
		c-0.6-0.1-1.1,0-1.4,0.1c-1.7,0.5-3,1.7-3.9,3.4c-0.4,1-0.5,2.4-0.5,3.9c0,1.6,0,3,0,4.4v16.2c0,1.6,0,3.1-0.1,4.7
		c-0.1,1.6-0.4,3-0.9,4.2c-0.9,1.7-2.4,2.7-4.7,3c-2.3,0.3-4.7,0.4-7.3,0.4c-0.9,0-1.7,0-2.4-0.1c-0.7-0.1-1.4,0-2.1,0.4
		c-2.6,0.7-4.1,2-4.4,3.9c-0.4,1.9-0.5,4.4-0.5,7.6v5.5c0.3,1.6,0.7,2.9,1,3.9c0.3,1,1.2,1.8,2.6,2.4c2.1,0.9,4.6,1.1,7.6,0.8
		c3-0.3,5.4-0.1,7.3,0.8c1.7,0.7,3,2.3,3.7,4.7c0.3,1,0.5,2.2,0.4,3.4c-0.1,1.2-0.1,2.4-0.1,3.7v13.8v38.9v9.9c0,0.9,0,1.7-0.1,2.6
		c-0.1,0.9,0,1.7,0.1,2.4v2.6c0.2,0.4,0.3,0.8,0.3,1.3s0.1,1,0.3,1.3c0.2,0.9,0.2,1.6,0.1,2.2c-0.1,0.6,0,1.3,0.4,2
		c1.2,4,3,7.7,5.5,11c0.3,0.4,0.8,0.7,1.3,1.2c0.5,0.4,1,0.8,1.3,1.2c0.7,0.5,1.3,1,1.8,1.4c0.5,0.4,1,0.8,1.6,1.2
		c1.6,0.9,3.2,1.7,5,2.4c1.7,0.7,3.6,1.3,5.5,1.8c1,0.2,2.1,0.4,3.1,0.5s2.2,0.3,3.4,0.5c0.9,0.2,1.8,0.3,2.9,0.3s2,0.1,2.9,0.3h2.9
		c0.7,0.2,1.5,0.2,2.4,0.1c0.9-0.1,1.7-0.1,2.6-0.1c0.9,0,1.8,0,2.7,0.1c1,0.1,1.9,0,2.7-0.1c0.5-0.2,1.1-0.2,1.8-0.1
		c0.7,0.1,1.2,0.1,1.6,0.1h2.6c0.9-0.4,1.7-0.5,2.4-0.4c0.7,0.1,1.5,0,2.4-0.4c2.8-1,4.2-3.1,4.3-6.1c0.1-3,0.1-6.4,0.1-10.1
		c0-1.7,0-3.4,0-5.1c0-1.7-0.4-3-1-4c-0.9-1.2-2-1.9-3.4-2.1c-1.4-0.2-3-0.3-5-0.3h-2.9c-0.4-0.2-0.8-0.2-1.4-0.1
		c-0.6,0.1-1.2,0-1.7-0.1c-1.6-0.3-3.1-0.7-4.6-1.2c-1.5-0.4-2.7-1.2-3.5-2.2c-1.9-2.4-3-5.3-3.3-8.5c-0.3-3.2-0.4-7-0.4-11.4v-30.6
		v-16.2c0.2-0.9,0.2-1.8,0-2.9c-0.2-1-0.2-2,0-2.9C298,117.6,298.4,116.3,299.1,115.1z"/>
	<path class="st0" d="M378.3,221.1c1.6,0.9,3.3,1.5,5.2,2c1.9,0.4,3.8,0.8,5.7,1.2c0.9,0.3,1.8,0.5,2.9,0.5s2,0.2,2.9,0.5
		c1.2,0.3,2.4,0.4,3.4,0.3c1-0.2,2.3-0.2,3.7,0c0.9,0.2,1.9,0.3,3,0.4c1.1,0.1,2.1,0,3-0.4h2.9c0.7-0.2,1.4-0.2,2.2-0.1
		c0.8,0.1,1.5,0,2.2-0.1c2.1-0.5,4.1-0.9,6-1c1.9-0.2,3.8-0.6,5.7-1.3c7.3-2.4,13.4-5.4,18.3-8.9c4.9-3.5,9.2-8.1,13.1-13.8
		c1.4-1.9,2.6-3.8,3.7-5.7c1-1.9,2-4.1,2.9-6.5c0.3-0.9,0.5-1.9,0.4-3.1c-0.1-1.2-0.5-2-1.2-2.4c-0.7-0.5-1.9-1-3.7-1.3H458
		c-0.9-0.3-1.9-0.5-3-0.4c-1.1,0.1-2.2,0.1-3.3,0.1c-2.3,0-4.7,0-7.4-0.1c-2.7-0.1-4.9,0.3-6.7,1.2c-1.4,0.5-2.6,1.4-3.5,2.5
		c-1,1.1-1.9,2.3-2.7,3.5c-1,1.4-2.7,2.8-4.8,4.2c-2.2,1.4-4.1,2.5-5.9,3.4c-1.4,0.5-2.8,1-4.3,1.4c-1.5,0.4-3.1,0.8-4.8,1.2h-2.4
		c-1.7,0.4-3.8,0.4-6.3,0.3c-2.4-0.2-4.4-0.4-5.7-0.8c-1.6-0.5-3.1-0.9-4.6-1.2c-1.5-0.3-2.9-0.8-4.3-1.7c-3.5-2.1-6.2-4.5-8.2-7.2
		c-2-2.7-3.7-6.1-5.1-10.3c-0.4-1-0.6-2-0.7-3c-0.1-1-0.3-2-0.7-3c-0.2-0.9-0.1-1.8,0.3-2.7c0.3-1,0.7-1.6,1-2
		c0.3-0.7,1.2-1.4,2.6-2.1c0.9-0.3,1.9-0.5,3-0.5c1.1,0,2.3,0,3.5,0h63.7c1.6,0,3.4,0,5.4,0.1c2,0.1,4,0.1,6,0
		c2-0.1,3.8-0.3,5.5-0.5c1.7-0.3,2.9-0.7,3.8-1.4c0.9-0.5,1.5-1.7,1.8-3.4c0.3-1.7,0.3-3.3,0-4.7v-2.9c-0.4-1.4-0.5-2.9-0.4-4.6
		c0.1-1.7,0-3.2-0.4-4.6c-0.7-2.4-1.3-4.9-1.8-7.3c-0.5-2.4-1.2-4.8-2.1-7.1c-0.7-1.9-1.4-3.7-2-5.4c-0.6-1.7-1.4-3.3-2.2-4.8
		c-1.4-2.1-2.7-4.1-3.9-6.1c-1.2-2-2.5-4-3.9-5.9c-0.9-0.5-1.6-1.2-2.1-2.1c-1.2-1.4-2.6-2.7-4.2-4c-1.6-1.3-3.1-2.5-4.7-3.5
		c-5.1-3.5-10.8-6.3-17.1-8.5c-6.4-2.2-14-3.2-22.9-3c-1.4,0.2-2.7,0.3-3.9,0.3c-1.2,0-2.5,0.1-3.9,0.3c-2.8,0.7-5.4,1.3-8,1.7
		c-2.5,0.4-5,1.2-7.4,2.2c-17.9,7.5-30.7,20.3-38.1,38.4c-1,2.4-1.8,5.1-2.4,7.8c-0.5,2.8-1.1,5.7-1.8,8.6l-0.8,6.3v3.1
		c-0.2,0.9-0.2,1.8-0.1,2.9c0.1,1,0.1,2,0.1,2.9c0.2,2.4,0.3,4.9,0.5,7.3c0.2,2.4,0.6,4.7,1.3,6.8c0.2,0.7,0.3,1.4,0.3,2
		c0,0.6,0.1,1.3,0.3,2c0.9,2.1,1.6,4.1,2.1,6.1c0.5,2,1.2,4,2.1,5.9c2.8,6.1,6.4,11.5,10.7,16.1c4.4,4.6,9.3,8.7,14.9,12.1
		c1.4,0.9,2.9,1.6,4.6,2.2C374.6,219.7,376.4,220.4,378.3,221.1z M374.4,133.7c0.2-1.1,0.5-2.3,0.9-3.4c0.4-1.1,0.8-2,1.2-2.7
		c3.7-7.1,9.3-11.9,17-14.4c0.9-0.3,1.8-0.6,2.9-0.7c1-0.1,2-0.3,2.9-0.7c0.5-0.2,1.1-0.2,1.8,0c0.7,0.2,1.3,0.1,1.8-0.3
		c7.1,0.2,12.7,1.5,16.7,4c4,2.5,7.2,6.1,9.7,10.8c0.5,1.2,1.3,3.1,2.2,5.6c1,2.5,0.8,4.7-0.4,6.4c-0.9,1.4-2.7,2.1-5.4,2.2
		c-2.7,0.1-5.3,0.1-7.7,0.1h-29c-2.3,0-4.6,0-7.1,0c-2.4,0-4.4-0.4-5.7-1.3c-0.9-0.7-1.4-1.6-1.7-2.6S374.2,134.8,374.4,133.7z"/>
	<path class="st0" d="M562.9,224.8c1.7-0.1,3.3-0.3,4.8-0.7c2.1-0.5,4.2-1,6.4-1.3c2.2-0.3,4.2-1,6.1-1.8c5-1.9,9.6-4.2,13.6-6.8
		c4-2.6,7.4-6,10.2-10.2c2.6-4,4.5-8.6,5.7-13.8c0.2-0.9,0.3-1.8,0.4-2.7c0.1-1,0.3-2,0.7-3v-1.3c0.2-1.2,0.2-2.9,0.1-5.1
		c-0.1-2.2-0.2-3.8-0.4-4.8c-0.4-1.4-0.7-2.7-1-3.9c-0.4-1.2-0.8-2.4-1.3-3.7c-1.6-3.7-3.7-6.7-6.4-9.1c-2.7-2.4-5.7-4.7-9-6.8
		c-1.4-0.9-2.8-1.5-4.3-2c-1.5-0.4-3-1-4.6-1.7c-3.5-1.4-7.2-2.6-11.1-3.5c-3.9-1-7.9-1.8-12-2.6c-4.1-0.8-8.1-1.7-12-2.6
		c-3.9-1-7.5-2.1-10.8-3.5c-2.3-0.9-4.2-1.9-5.9-3.1c-1.7-1.2-3.1-2.9-4.3-5c-0.4-0.7-0.7-1.6-1-2.6c-0.4-1-0.4-2.2,0-3.4
		c0.7-3,2-5.2,3.8-6.7c1.8-1.5,4.2-2.7,7.2-3.5c0.9-0.2,1.7-0.3,2.5-0.4c0.8-0.1,1.6-0.2,2.5-0.4h1.8c1.2-0.3,3-0.4,5.4-0.3
		c2.4,0.2,4.1,0.4,5.4,0.8c2.4,0.5,4.5,1.1,6.1,1.8c1.7,0.7,3.4,1.7,5.1,3.1c1.2,0.9,2.1,2,2.7,3.3c0.6,1.3,1.3,2.5,2,3.7
		c0.7,1.1,1.5,2.2,2.4,3.3c0.9,1,2.2,1.7,3.9,2.1c1,0.4,2.2,0.5,3.4,0.4c1.2-0.1,2.4-0.1,3.7-0.1h11.5c1.2,0,2.4,0,3.7,0
		c1.2,0,2.3-0.2,3.1-0.5c1.2-0.3,2.2-1,2.9-2.1c0.3-0.9,0.5-1.9,0.5-3.1c0-1.2-0.2-2.4-0.5-3.4c-0.7-2.4-1.5-4.7-2.5-6.7
		c-1-2-2-4-3.3-5.9c-5.1-7.8-12.4-13.4-22.1-16.6c-9.7-3.2-21-4.7-34.1-4.3c-1.4,0.2-2.9,0.3-4.4,0.3s-3,0.1-4.4,0.3
		c-1,0.2-2.1,0.3-3.1,0.4c-1,0.1-2.1,0.3-3.1,0.7c-2.3,0.5-4.4,1-6.5,1.4c-2.1,0.4-4.1,1.1-6,2c-5.1,1.9-9.6,4.4-13.6,7.6
		c-4,3.1-7.1,7.2-9.4,12.3c-0.7,1.6-1.3,3.2-1.7,4.8c-0.4,1.7-0.8,3.4-1.2,5.4c-0.4,0.9-0.4,1.6-0.3,2.2c0.2,0.6,0.1,1.4-0.3,2.2
		c-0.4,1.4-0.4,3-0.3,4.7c0.2,1.7,0.4,3.2,0.8,4.4c0.3,2.1,0.7,3.7,1,5c2.3,5.9,5.8,10.6,10.7,14.1c4.2,3,8.8,5.2,13.8,6.7
		c5,1.5,10.4,3,15.9,4.6c1.4,0.4,2.8,0.6,4.3,0.8c1.5,0.2,2.9,0.4,4.3,0.8c3.7,1,7.3,2,11,2.9c3.7,0.9,7.1,2,10.4,3.4
		c2.4,1,4.6,2.2,6.4,3.4c1.8,1.2,3.4,3,4.6,5.5c0.3,0.7,0.7,1.6,1,2.6c0.3,1,0.3,2.2,0,3.4c-0.5,3-1.2,5.1-2.1,6.5
		c-1.2,1.9-2.8,3.5-4.8,4.7c-2,1.2-4.2,2.3-6.7,3.1c-0.9,0.4-1.7,0.5-2.5,0.5s-1.6,0.1-2.5,0.3c-1.2,0.4-2.7,0.6-4.3,0.7
		c-1.7,0.1-3.2,0-4.6-0.4c-0.9-0.2-1.7-0.2-2.6-0.1c-0.9,0.1-1.7,0-2.6-0.4c-3-0.9-5.4-1.8-7.3-2.7c-1.9-1-3.9-2.3-6-4
		c-0.7-0.3-1.5-1.2-2.5-2.6c-1-1.4-1.6-2.5-2-3.4c-0.9-1.7-1.6-3.4-2.2-5c-0.6-1.6-1.9-2.7-3.8-3.4c-1-0.3-2.3-0.5-3.7-0.5
		c-1.4,0-2.8,0-4.2,0h-12.3c-1.4,0-2.7,0-3.9,0c-1.2,0-2.3,0.2-3.1,0.5c-1.2,0.5-2.1,1.4-2.6,2.6c-0.4,1-0.4,2.4-0.3,3.9
		c0.2,1.6,0.4,2.8,0.8,3.7c0.3,1.7,0.7,3.1,1,4.2c1.7,4.4,3.8,8.2,6.3,11.5c3.7,5.1,8.1,8.8,13.3,11.4c5.2,2.5,11.2,4.7,18,6.7
		c1.9,0.5,3.9,0.9,6,1c2.1,0.2,4.2,0.4,6.3,0.8c0.7,0,1.3,0,2,0.1c0.6,0.1,1.2,0.1,1.7,0.1c1,0.3,2.8,0.5,5.4,0.5
		c2.5,0,4.3-0.2,5.4-0.5h4.7C559.6,225.1,561.2,224.9,562.9,224.8z"/>
	<path class="st0" d="M680.3,223.4c2.8,0,5.2-1,7.2-3c2-2,3-4.4,3-7.2V29.5c0-2.8-1-5.2-3-7.2c-2-2-4.4-3-7.2-3c-2.8,0-5.2,1-7.2,3
		c-2,2-3,4.4-3,7.2v183.7c0,2.8,1,5.2,3,7.2C675.1,222.4,677.5,223.4,680.3,223.4z"/>
	<path class="st0" d="M751.7,203h-10.2V29.5c0-2.8-1-5.2-3-7.2c-2-2-4.4-3-7.2-3s-5.2,1-7.2,3c-2,2-3,4.4-3,7.2v183.7
		c0,2.8,1,5.2,3,7.2c2,2,4.4,3,7.2,3h20.4c2.8,0,5.2-1,7.2-3c2-2,3-4.4,3-7.2c0-2.8-1-5.2-3-7.2C756.9,204,754.5,203,751.7,203z"/>
	<path class="st0" d="M792.6,223.4H813c2.8,0,5.2-1,7.2-3c2-2,3-4.4,3-7.2c0-2.8-1-5.2-3-7.2c-2-2-4.4-3-7.2-3h-10.2V29.5
		c0-2.8-1-5.2-3-7.2c-2-2-4.4-3-7.2-3s-5.2,1-7.2,3c-2,2-3,4.4-3,7.2v183.7c0,2.8,1,5.2,3,7.2C787.3,222.4,789.7,223.4,792.6,223.4z
		"/>
	<path class="st0" d="M958.8,220.4c2,2,4.4,3,7.2,3c2.8,0,5.2-1,7.2-3c2-2,3-4.4,3-7.2V90.7c0-2.8-1-5.2-3-7.2c-2-2-4.4-3-7.2-3
		c-2.8,0-5.2,1-7.2,3c-2,2-3,4.4-3,7.2V157c0,12.7-4.5,23.5-13.5,32.5c-9,9-19.8,13.5-32.5,13.5c-12.7,0-23.5-4.5-32.5-13.5
		c-9-9-13.5-19.8-13.5-32.5V90.7c0-2.8-1-5.2-3-7.2c-2-2-4.4-3-7.2-3s-5.2,1-7.2,3c-2,2-3,4.4-3,7.2V157c0,18.3,6.5,33.9,19.5,46.9
		c13,13,28.6,19.5,46.9,19.5c17.9,0,33.2-6.2,45.9-18.5v8.3C955.8,216,956.8,218.4,958.8,220.4z"/>
	<path class="st0" d="M1111.4,182.6c0-8.4-3-15.6-9.1-21.6c-3.1-3.1-8.5-6.2-16.2-9.1l-62.8-20.8c-3.9-1.4-6-4.2-6.3-8.2
		c0-3.4,1-6.3,3.1-8.8c8.4-8.8,19.7-13.3,33.8-13.3c14.1,0,26.1,5,36.1,14.9c0.8,0.8,2,2,3.7,3.8c1.7,1.8,4,2.7,6.8,2.7
		c2.8,0,5.2-1,7.2-3c2-2,3-4.4,3-7.2c0.1-2.4-0.6-4.4-1.9-6c-15.2-17.1-33.5-25.6-54.8-25.6c-19.7,0-35.7,6.3-48,18.8
		c-6.3,6.3-9.4,13.6-9.4,22.1s3,15.6,9.1,21.6c3.1,3.1,8.5,6.2,16.2,9.1l62.8,20.8c3.9,1.4,6,4.2,6.3,8.2c0,3.4-1,6.3-3.1,8.8
		c-8.4,8.8-19.7,13.3-33.8,13.3c-14.1,0-26.1-5-36.1-14.9c-0.8-0.8-2-2-3.7-3.8c-1.7-1.8-4-2.7-6.8-2.7c-2.8,0-5.2,1-7.2,3
		c-2,2-3,4.4-3,7.2c0,2.2,0.6,4.2,1.9,6c15.1,17.1,33.4,25.6,54.8,25.6c19.7,0,35.7-6.3,48-18.8
		C1108.3,198.3,1111.4,191,1111.4,182.6z"/>
	<path class="st0" d="M1203.3,203c-20.4,0-30.6-10.2-30.6-30.6v-71.4h20.5c2.8,0,5.2-1,7.2-3c2-2,3-4.4,3-7.2c0-2.8-1-5.2-3-7.2
		c-2-2-4.4-3-7.2-3h-20.5v-51c0-2.8-1-5.2-3-7.2c-2-2-4.4-3-7.2-3c-2.8,0-5.2,1-7.2,3c-2,2-3,4.4-3,7.2v51H1142c-2.8,0-5.2,1-7.2,3
		c-2,2-3,4.4-3,7.2c0,2.8,1,5.2,3,7.2c2,2,4.4,3,7.2,3h10.2v71.4c0,34,17,51,51,51c2.8,0,5.2-1,7.2-3c2-2,3-4.4,3-7.2
		c0-2.8-1-5.2-3-7.2C1208.5,204,1206.1,203,1203.3,203z"/>
	<path class="st0" d="M1244.1,223.4c2.8,0,5.2-1,7.2-3c2-2,3-4.4,3-7.2v-61.2c0-14.1,5-26.1,14.9-36.1c9.9-9.9,22-14.9,36.1-14.9
		c7.2,0,13.9,1.3,19.9,3.8c1.4,0.7,2.8,1,4.5,1c2.8,0,5.2-1,7.2-3c2-2,3-4.4,3-7.2c0-2.8-1-5.2-2.9-7.3c-1.3-1.2-2.7-2.1-4.2-2.7
		c-8.3-3.4-17.5-5.1-27.4-5.1c-19.7,0-36.7,7.1-51,21.4V90.7c0-2.8-1-5.2-3-7.2c-2-2-4.4-3-7.2-3c-2.8,0-5.2,1-7.2,3
		c-2,2-3,4.4-3,7.2v122.4c0,2.8,1,5.2,3,7.2C1238.9,222.4,1241.3,223.4,1244.1,223.4z"/>
	<path class="st0" d="M1478.8,201.9v11.2c0,2.8,1,5.2,3,7.2c2,2,4.4,3,7.2,3c2.8,0,5.2-1,7.2-3c2-2,3-4.4,3-7.2v-61.2
		c0-19.7-7-36.6-20.9-50.5c-13.9-13.9-30.8-20.9-50.5-20.9c-19.7,0-36.6,7-50.5,20.9c-13.9,13.9-20.9,30.8-20.9,50.5
		c0,19.7,7,36.6,20.9,50.5c13.9,13.9,30.8,20.9,50.5,20.9C1447.5,223.4,1464.5,216.2,1478.8,201.9z M1376.7,151.9
		c0-14.1,5-26.1,14.9-36.1c9.9-9.9,22-14.9,36.1-14.9c14.1,0,26.1,5,36.1,14.9c9.9,9.9,14.9,22,14.9,36.1c0,14.1-5,26.1-14.9,36.1
		c-9.9,9.9-22,14.9-36.1,14.9c-14.1,0-26.1-5-36.1-14.9C1381.7,178.1,1376.7,166.1,1376.7,151.9z"/>
	<path class="st0" d="M1598.2,220.4c2-2,3-4.4,3-7.2c0-2.8-1-5.2-3-7.2c-2-2-4.4-3-7.2-3c-20.4,0-30.6-10.2-30.6-30.6v-71.4h20.5
		c2.8,0,5.2-1,7.2-3c2-2,3-4.4,3-7.2c0-2.8-1-5.2-3-7.2c-2-2-4.4-3-7.2-3h-20.5v-51c0-2.8-1-5.2-3-7.2c-2-2-4.4-3-7.2-3
		c-2.8,0-5.2,1-7.2,3c-2,2-3,4.4-3,7.2v51h-10.2c-2.8,0-5.2,1-7.2,3c-2,2-3,4.4-3,7.2c0,2.8,1,5.2,3,7.2c2,2,4.4,3,7.2,3h10.2v71.4
		c0,34,17,51,51,51C1593.8,223.4,1596.2,222.4,1598.2,220.4z"/>
	<path class="st0" d="M1685.5,80.5c-19.7,0-36.6,7-50.5,20.9c-13.9,13.9-20.9,30.8-20.9,50.5c0,19.7,7,36.6,20.9,50.5
		c13.9,13.9,30.8,20.9,50.5,20.9c17.9,0,33.4-5.7,46.6-17.2c2-2,2.9-4.5,2.9-7.3c0-2.8-1-5.2-3-7.2c-2-2-4.4-3-7.2-3
		c-2.4,0-4.5,0.7-6.4,2.2c-9.2,8.1-20.2,12.1-32.9,12.1c-14.1,0-26.1-5-36.1-14.9c-7.5-7.5-12.2-16.1-14-25.9h111.4
		c2.8,0,5.2-1,7.2-3c2-2,3-4.4,3-7.2c0-19.7-7-36.6-20.9-50.5C1722.1,87.5,1705.3,80.5,1685.5,80.5z M1635.4,141.7
		c1.9-9.8,6.5-18.4,14-25.9c9.9-9.9,22-14.9,36.1-14.9c14.1,0,26.1,5,36.1,14.9c7.5,7.5,12.2,16.1,14,25.9H1635.4z"/>
	<path class="st0" d="M1917.2,22c-2-2-4.4-3-7.2-3c-2.8,0-5.2,1-7.2,3c-2,2-3,4.4-3,7.2v72.7c-0.2-0.2-0.3-0.3-0.5-0.5
		c-13.9-13.9-30.8-20.9-50.5-20.9c-19.7,0-36.6,7-50.5,20.9c-13.9,13.9-20.9,30.8-20.9,50.5c0,19.7,7,36.6,20.9,50.5
		c13.9,13.9,30.8,20.9,50.5,20.9c19.7,0,36.6-7,50.5-20.9c13.9-13.9,20.9-30.8,20.9-50.5V29.2C1920.2,26.4,1919.2,24,1917.2,22z
		 M1884.9,188c-9.9,9.9-22,14.9-36.1,14.9c-14.1,0-26.1-5-36.1-14.9c-9.9-9.9-14.9-22-14.9-36.1c0-14.1,5-26.1,14.9-36.1
		c9.9-9.9,22-14.9,36.1-14.9c14.1,0,26.1,5,36.1,14.9c9.9,9.9,14.9,22,14.9,36.1C1899.8,166.1,1894.8,178.1,1884.9,188z"/>
	<polygon class="st0" points="66,309 41.7,255.5 16.6,255.5 16.6,345.4 37,345.4 37,287 58.6,336.4 73.5,336.4 95,287 95.2,345.4 
		115.3,345.4 115.3,255.5 90.4,255.5 	"/>
	<path class="st0" d="M176,254.8c-27.7,0-48.5,19.4-48.5,45.6c0,26.3,20.8,46.1,48.5,46.1c27.8,0,48.6-19.9,48.6-46.1
		C224.7,274.3,203.9,254.8,176,254.8z M176.3,327.3c-13.7,0-25.4-11.7-25.4-26.8s11.5-26.6,25.4-26.6s24.9,11.4,24.9,26.6
		S190.1,327.3,176.3,327.3z"/>
	<path class="st0" d="M296.8,297.8c9.5-2.7,15.4-10.3,15.4-19.8c0-13.7-12.8-22.5-33-22.5h-42.5v89.8h44c21.2,0,34.5-9.6,34.5-24.9
		C315.3,308.9,308.1,300,296.8,297.8z M259.4,273.1h18.5c6.7,0,10.9,3.3,10.9,9.1c0,5.8-4.2,9.4-10.9,9.4h-18.5V273.1z M277.9,327.8
		h-18.5V308h18.5c8.5,0,13.7,3.7,13.7,9.8C291.7,324.1,286.4,327.8,277.9,327.8z"/>
	<rect x="328.5" y="255.6" class="st0" width="22.8" height="89.8"/>
	<polygon class="st0" points="392.1,255.6 369.3,255.6 369.3,345.4 430.2,345.4 430.2,326.3 392.1,326.3 	"/>
	<polygon class="st0" points="464,309.4 506.9,309.4 506.9,291.4 464,291.4 464,273.6 511.5,273.6 511.5,255.6 441.2,255.6 
		441.2,345.4 512.9,345.4 512.9,327.5 464,327.5 	"/>
	<polygon class="st0" points="557.4,345.4 580.3,345.4 580.3,312.3 620.6,312.3 620.6,294.4 580.3,294.4 580.3,273.6 624,273.6 
		624,255.6 557.4,255.6 	"/>
	<path class="st0" d="M712.4,286.9c0-20-13.6-31.3-37.3-31.3h-40.2v89.8h22.8v-25.3h17.3h0.6l13.3,25.3H715l-18.9-29.6
		C706.7,310.5,712.4,300.6,712.4,286.9z M675.1,302.2h-17.3v-28.6h17.3c9.9,0,15.7,4.7,15.7,14.1C690.8,297.2,685,302.2,675.1,302.2
		z"/>
	<rect x="727.8" y="255.6" class="st0" width="22.8" height="89.8"/>
	<polygon class="st0" points="791.5,309.4 834.4,309.4 834.4,291.4 791.5,291.4 791.5,273.6 839,273.6 839,255.6 768.7,255.6 
		768.7,345.4 840.4,345.4 840.4,327.5 791.5,327.5 	"/>
	<polygon class="st0" points="916.7,311 875.3,255.6 855.1,255.6 855.1,345.4 876.6,345.4 876.6,290.1 917.9,345.4 938,345.4 
		938,255.6 916.7,255.6 	"/>
	<path class="st0" d="M994.6,255.6H956v89.8h37.7c28.9,0,48.6-18.4,48.6-44.9C1042.4,273.8,1022.9,255.6,994.6,255.6z M995.2,327.2
		h-16.3v-53.4h15.3c14.5,0,25,10.9,25,26.8C1019.2,316.4,1009.1,327.2,995.2,327.2z"/>
	<polygon class="st0" points="1077.3,255.6 1054.4,255.6 1054.4,345.4 1115.4,345.4 1115.4,326.3 1077.3,326.3 	"/>
	<polygon class="st0" points="1161.2,294.7 1139.5,255.6 1116.7,255.6 1149.9,317.1 1149.9,345.4 1172.6,345.4 1172.6,316.4 
		1205.2,255.6 1182.4,255.6 	"/>
	<polygon class="st0" points="1333.3,321.7 1315.7,255.6 1293.4,255.6 1276.2,321.7 1258.6,255.6 1234.2,255.6 1263.6,345.4 
		1287.2,345.4 1304.2,283.3 1320.9,345.4 1344.3,345.4 1374,255.6 1350.6,255.6 	"/>
	<polygon class="st0" points="1404.9,309.4 1447.8,309.4 1447.8,291.4 1404.9,291.4 1404.9,273.6 1452.4,273.6 1452.4,255.6 
		1382.1,255.6 1382.1,345.4 1453.8,345.4 1453.8,327.5 1404.9,327.5 	"/>
	<path class="st0" d="M1528.6,297.8c9.5-2.7,15.4-10.3,15.4-19.8c0-13.7-12.8-22.5-33-22.5h-42.5v89.8h44c21.2,0,34.5-9.6,34.5-24.9
		C1547.1,308.9,1539.9,300,1528.6,297.8z M1491.3,273.1h18.5c6.7,0,10.9,3.3,10.9,9.1c0,5.8-4.2,9.4-10.9,9.4h-18.5V273.1z
		 M1509.8,327.8h-18.5V308h18.5c8.5,0,13.7,3.7,13.7,9.8C1523.5,324.1,1518.2,327.8,1509.8,327.8z"/>
	<path class="st0" d="M1583,279.6c0-4.4,4-6.5,9.9-6.5c7.3,0,19.2,3.8,28.7,9.4l8.6-17.8c-9.2-6-22.5-10-35.4-10
		c-21.6,0-35.8,10.5-35.8,27.1c0,31.8,47.5,22.3,47.5,38.2c0,5.1-4.5,7.8-11.7,7.8c-9.4,0-23.2-5.4-32.5-13.5l-8.9,17.6
		c10.7,8.7,26,14.4,41.1,14.4c20,0,35.9-9.5,35.9-27.5C1630.5,286.3,1583,295.1,1583,279.6z"/>
	<rect x="1643" y="255.6" class="st0" width="22.8" height="89.8"/>
	<polygon class="st0" points="1675.7,274 1702.5,274 1702.5,345.4 1725.4,345.4 1725.4,274 1752.4,274 1752.4,255.5 1675.7,255.5 	
		"/>
	<polygon class="st0" points="1785,309.4 1827.9,309.4 1827.9,291.4 1785,291.4 1785,273.6 1832.5,273.6 1832.5,255.6 1762.2,255.6 
		1762.2,345.4 1833.9,345.4 1833.9,327.5 1785,327.5 	"/>
	<path class="st0" d="M1871.4,279.6c0-4.4,4-6.5,9.9-6.5c7.3,0,19.2,3.8,28.7,9.4l8.6-17.8c-9.2-6-22.5-10-35.4-10
		c-21.6,0-35.8,10.5-35.8,27.1c0,31.8,47.5,22.3,47.5,38.2c0,5.1-4.5,7.8-11.7,7.8c-9.4,0-23.2-5.4-32.5-13.5l-8.9,17.6
		c10.7,8.7,26,14.4,41.1,14.4c20,0,35.9-9.5,35.9-27.5C1918.9,286.3,1871.4,295.1,1871.4,279.6z"/>
</g>
</svg>
