<?xml version="1.0" encoding="iso-8859-1"?>
<!-- Generator: Adobe Illustrator 19.0.0, SVG Export Plug-In . SVG Version: 6.00 Build 0)  -->
<svg version="1.1" id="Capa_1" xmlns="http://www.w3.org/2000/svg" xmlns:xlink="http://www.w3.org/1999/xlink" x="0px" y="0px"
	 viewBox="0 0 512 512" style="enable-background:new 0 0 512 512;" xml:space="preserve">
<path style="fill:#303C42;" d="M384,64h-42.667V10.679c0-5.903-4.063-10.679-9.958-10.679H181.333
	c-5.896,0-10.667,4.777-10.667,10.679V64H128c-23.521,0-42.667,18.62-42.667,42.18v363.103C85.333,492.842,104.479,512,128,512h256
	c23.521,0,42.667-19.158,42.667-42.718V106.18C426.667,82.62,407.521,64,384,64z"/>
<rect x="192" y="21.333" style="fill:#F2F2F2;" width="128" height="42.667"/>
<path style="fill:#E6E6E6;" d="M405.333,469.333c0,11.76-9.563,21.333-21.333,21.333H128c-11.771,0-21.333-9.573-21.333-21.333
	V106.667c0-11.76,9.563-21.333,21.333-21.333h256c11.771,0,21.333,9.573,21.333,21.333V469.333z"/>
<path style="fill:#303C42;" d="M373.333,362.667H138.667c-5.896,0-10.667,4.771-10.667,10.667v85.333
	c0,5.896,4.771,10.667,10.667,10.667h234.667c5.896,0,10.667-4.771,10.667-10.667v-85.333
	C384,367.438,379.229,362.667,373.333,362.667z"/>
<rect x="149.333" y="384" style="fill:#01579B;" width="213.333" height="64"/>
<rect x="149.333" y="384" style="opacity:0.2;fill:#FFFFFF;enable-background:new    ;" width="32" height="64"/>
<rect x="330.667" y="384" style="opacity:0.1;enable-background:new    ;" width="32" height="64"/>
<linearGradient id="SVGID_1_" gradientUnits="userSpaceOnUse" x1="-44.383" y1="638.3443" x2="-24.383" y2="629.0183" gradientTransform="matrix(21.3333 0 0 -21.3333 996.3334 13791.667)">
	<stop  offset="0" style="stop-color:#FFFFFF;stop-opacity:0.2"/>
	<stop  offset="1" style="stop-color:#FFFFFF;stop-opacity:0"/>
</linearGradient>
<path style="fill:url(#SVGID_1_);" d="M384,64h-42.667V10.679c0-5.903-4.063-10.679-9.958-10.679H181.333
	c-5.896,0-10.667,4.777-10.667,10.679V64H128c-23.521,0-42.667,18.62-42.667,42.18v363.103C85.333,492.842,104.479,512,128,512h256
	c23.521,0,42.667-19.158,42.667-42.718V106.18C426.667,82.62,407.521,64,384,64z"/>
<g>
</g>
<g>
</g>
<g>
</g>
<g>
</g>
<g>
</g>
<g>
</g>
<g>
</g>
<g>
</g>
<g>
</g>
<g>
</g>
<g>
</g>
<g>
</g>
<g>
</g>
<g>
</g>
<g>
</g>
</svg>
