<?xml version="1.0" encoding="iso-8859-1"?>
<!-- Generator: Adobe Illustrator 19.0.0, SVG Export Plug-In . SVG Version: 6.00 Build 0)  -->
<svg version="1.1" id="Capa_1" xmlns="http://www.w3.org/2000/svg" xmlns:xlink="http://www.w3.org/1999/xlink" x="0px" y="0px"
	 viewBox="0 0 510.243 510.243" style="enable-background:new 0 0 510.243 510.243;" xml:space="preserve">
<g transform="translate(0 -1)">
	<g>
		<path style="fill:#E57E25;" d="M401.407,174.175v79.177c-0.001,3.62-1.077,7.159-3.09,10.167L235.29,507.185
			c-2.239,3.345-6.403,4.832-10.254,3.663c-3.852-1.17-6.485-4.721-6.486-8.746v-53.093l9.143-45.714L401.407,174.175z"/>
		<path style="fill:#E57E25;" d="M365.018,9.695v82.011c0.052,1.606-0.361,3.194-1.189,4.571l-53.851,87.589l-73.143-18.286
			L365.018,9.695z"/>
	</g>
	<path style="fill:#F29C1F;" d="M240.036,321.009h-122.24c-4.815,0.108-8.816-3.689-8.96-8.503V230.22h182.857L240.036,321.009z"/>
	<path style="fill:#F0C419;" d="M218.55,449.009l181.394-270.171c0.949-1.37,1.459-2.996,1.463-4.663
		c-0.062-2.356-1.063-4.589-2.78-6.203c-1.717-1.614-4.008-2.475-6.363-2.391H288.036c-3.164,0.152-6.157-1.44-7.798-4.15
		c-1.641-2.709-1.666-6.1-0.065-8.833L363.83,13.992c1.565-2.753,1.509-6.139-0.145-8.839s-4.646-4.287-7.809-4.143h-238.08
		c-4.815-0.108-8.816,3.689-8.96,8.503V230.22c0.144,4.814,4.145,8.611,8.96,8.503h125.806c2.598-0.079,5.098,0.997,6.827,2.938
		s2.51,4.548,2.133,7.12L218.55,449.009"/>
	<g>
		<path style="fill:#F3D55B;" d="M145.407,138.152c-5.049,0-9.143-4.093-9.143-9.143V37.58c0-5.049,4.093-9.143,9.143-9.143
			c5.049,0,9.143,4.093,9.143,9.143v91.429C154.55,134.058,150.457,138.152,145.407,138.152z"/>
		<path style="fill:#F3D55B;" d="M145.407,211.295c-5.049,0-9.143-4.093-9.143-9.143V165.58c0-5.049,4.093-9.143,9.143-9.143
			c5.049,0,9.143,4.093,9.143,9.143v36.571C154.55,207.201,150.457,211.295,145.407,211.295z"/>
	</g>
</g>
<g>
</g>
<g>
</g>
<g>
</g>
<g>
</g>
<g>
</g>
<g>
</g>
<g>
</g>
<g>
</g>
<g>
</g>
<g>
</g>
<g>
</g>
<g>
</g>
<g>
</g>
<g>
</g>
<g>
</g>
</svg>
