<?xml version="1.0" encoding="iso-8859-1"?>
<!-- Generator: Adobe Illustrator 19.0.0, SVG Export Plug-In . SVG Version: 6.00 Build 0)  -->
<svg version="1.1" id="Layer_1" xmlns="http://www.w3.org/2000/svg" xmlns:xlink="http://www.w3.org/1999/xlink" x="0px" y="0px"
	 viewBox="0 0 512 512" style="enable-background:new 0 0 512 512;" xml:space="preserve">
<path style="fill:#5C5F66;" d="M295.619,159.944l-38.957,39.068l-24.932,24.932c-35.394,0-67.005-12.911-91.381-37.176
	L76.572,122.88c-10.464-10.463-3.005-28.494,11.797-28.494c16.807,0,30.497-13.69,30.497-30.497c0-35.283,28.717-63.889,64-63.889
	c4.341,0,8.57,1.67,11.797,4.897l62.665,62.664C282.04,92.271,295.619,125.106,295.619,159.944z"/>
<path style="fill:#53565C;" d="M295.619,159.944l-38.957,39.068V66.894l0.669,0.668C282.04,92.271,295.619,125.106,295.619,159.944z
	"/>
<path style="fill:#A1A7B3;" d="M256.662,345.064c-9.217,0-16.696-7.473-16.696-16.696V217.064c0-9.223,7.479-16.696,16.696-16.696
	c9.217,0,16.696,7.473,16.696,16.696v111.304C273.358,337.591,265.879,345.064,256.662,345.064z"/>
<path style="fill:#979CA7;" d="M273.358,328.368V217.064c0-9.223-7.479-16.696-16.696-16.696v144.696
	C265.879,345.064,273.358,337.591,273.358,328.368z"/>
<path style="fill:#5C5F66;" d="M440.314,461.913v33.391c0,9.238-7.456,16.696-16.696,16.696H223.271
	c-9.239,0-16.696-7.457-16.696-16.696V361.739c0-4.563,1.891-8.682,4.785-11.687h90.492c1.223,1.224,2.337,2.56,3.116,4.23
	l24.152,48.306c2.894,5.677,8.57,9.238,14.915,9.238h46.191C417.83,411.826,440.314,434.31,440.314,461.913z"/>
<path style="fill:#53565C;" d="M440.314,461.913v33.391c0,9.238-7.456,16.696-16.696,16.696H256.662V350.052h45.191
	c1.223,1.224,2.337,2.56,3.117,4.23l24.152,48.306c2.894,5.677,8.57,9.238,14.915,9.238h46.191
	C417.83,411.826,440.314,434.31,440.314,461.913z"/>
<path style="fill:#D2DAE9;" d="M256.662,233.183c-27.619,0-50.087-22.468-50.087-50.087s22.468-50.087,50.087-50.087
	s50.087,22.468,50.087,50.087S284.281,233.183,256.662,233.183z"/>
<path style="fill:#C7CEDD;" d="M306.749,183.096c0-27.619-22.468-50.087-50.087-50.087v100.174
	C284.281,233.183,306.749,210.716,306.749,183.096z"/>
<path style="fill:#D2DAE9;" d="M256.662,411.27c-27.619,0-50.087-22.468-50.087-50.087s22.468-50.087,50.087-50.087
	s50.087,22.468,50.087,50.087S284.281,411.27,256.662,411.27z"/>
<path style="fill:#5C5F66;" d="M256.662,344.487c-9.206,0-16.696,7.49-16.696,16.696s7.49,16.696,16.696,16.696
	s16.696-7.49,16.696-16.696C273.358,351.977,265.868,344.487,256.662,344.487z"/>
<path style="fill:#C7CEDD;" d="M306.749,361.183c0-27.619-22.468-50.087-50.087-50.087V411.27
	C284.281,411.27,306.749,388.803,306.749,361.183z"/>
<path style="fill:#53565C;" d="M273.358,361.183c0-9.206-7.49-16.696-16.696-16.696v33.391
	C265.868,377.878,273.358,370.39,273.358,361.183z"/>
<path style="fill:#5C5F66;" d="M256.662,166.4c-9.206,0-16.696,7.49-16.696,16.696s7.49,16.696,16.696,16.696
	s16.696-7.49,16.696-16.696S265.868,166.4,256.662,166.4z"/>
<path style="fill:#53565C;" d="M273.358,183.096c0-9.206-7.49-16.696-16.696-16.696v33.391
	C265.868,199.791,273.358,192.303,273.358,183.096z"/>
<g>
</g>
<g>
</g>
<g>
</g>
<g>
</g>
<g>
</g>
<g>
</g>
<g>
</g>
<g>
</g>
<g>
</g>
<g>
</g>
<g>
</g>
<g>
</g>
<g>
</g>
<g>
</g>
<g>
</g>
</svg>
