<?xml version="1.0" encoding="iso-8859-1"?>
<!-- Generator: Adobe Illustrator 19.0.0, SVG Export Plug-In . SVG Version: 6.00 Build 0)  -->
<svg version="1.1" id="Capa_1" xmlns="http://www.w3.org/2000/svg" xmlns:xlink="http://www.w3.org/1999/xlink" x="0px" y="0px"
	 viewBox="0 0 512 512" style="enable-background:new 0 0 512 512;" xml:space="preserve">
<rect x="241" y="376" style="fill:#A8D3D8;" width="30" height="60"/>
<rect x="256" y="376" style="fill:#8EBAC5;" width="15" height="60"/>
<rect x="166" y="421" style="fill:#A8D3D8;" width="180" height="30"/>
<rect x="256" y="421" style="fill:#8EBAC5;" width="90" height="30"/>
<path style="fill:#FF9F00;" d="M391,135v61H121v-61c0-46.8,24-87.9,60-112.2h150C367,47.1,391,88.2,391,135z"/>
<path style="fill:#FF7816;" d="M391,135v61H256V22.8h75C367,47.1,391,88.2,391,135z"/>
<polygon style="fill:#5A5A5A;" points="329.5,322.599 295.3,391 216.7,391 182.5,322.599 "/>
<polygon style="fill:#444444;" points="295.3,391 256,391 256,322.599 329.5,322.599 "/>
<rect x="121" y="196" style="fill:#FDBF00;" width="270" height="135"/>
<path style="fill:#5A5A5A;" d="M331,22.8V120H181V22.8C202.599,8.399,228.401,0,256,0S309.401,8.399,331,22.8z"/>
<path style="fill:#444444;" d="M331,120h-75V0c27.599,0,53.401,8.399,75,22.8V120z"/>
<rect x="256" y="196" style="fill:#FF9F00;" width="135" height="135"/>
<rect x="241" y="45" style="fill:#00DDC1;" width="30" height="30"/>
<rect x="271" y="241" style="fill:#444444;" width="60" height="30"/>
<path style="fill:#5A5A5A;" d="M91,361v151h90V361H91z"/>
<rect x="136" y="361" style="fill:#444444;" width="45" height="151"/>
<path style="fill:#5A5A5A;" d="M331,361v151h90V361H331z"/>
<rect x="376" y="361" style="fill:#444444;" width="45" height="151"/>
<rect x="256" y="45" style="fill:#00CCB2;" width="15" height="30"/>
<polygon style="fill:#5A5A5A;" points="482,181 482,286 452,286 452,211 60,211 60,286 30,286 30,181 "/>
<polygon style="fill:#444444;" points="482,181 482,286 452,286 452,211 256,211 256,181 "/>
<path style="fill:#FF7816;" d="M498.802,347.831l-21.182-21.24c2.827-2.813,4.38-6.577,4.38-10.591s-1.553-7.778-4.38-10.591
	c-5.684-5.713-15.586-5.684-21.211-0.029C453.553,308.222,452,311.986,452,316s1.553,7.778,4.38,10.591l-21.182,21.24
	C426.688,339.35,422,328.041,422,316s4.688-23.35,13.198-31.831c16.904-16.963,46.67-16.992,63.633,0.029
	C507.313,292.65,512,303.959,512,316S507.313,339.35,498.802,347.831z"/>
<path style="fill:#FF9F00;" d="M76.802,347.831l-21.182-21.24C58.447,323.778,60,320.014,60,316s-1.553-7.778-4.38-10.591
	c-5.684-5.713-15.586-5.684-21.211-0.029C31.553,308.222,30,311.986,30,316s1.553,7.778,4.38,10.591l-21.182,21.24
	C4.688,339.35,0,328.041,0,316s4.688-23.35,13.198-31.831c16.904-16.963,46.67-16.992,63.633,0.029C85.313,292.65,90,303.959,90,316
	S85.313,339.35,76.802,347.831z"/>
<g>
</g>
<g>
</g>
<g>
</g>
<g>
</g>
<g>
</g>
<g>
</g>
<g>
</g>
<g>
</g>
<g>
</g>
<g>
</g>
<g>
</g>
<g>
</g>
<g>
</g>
<g>
</g>
<g>
</g>
</svg>
